<?xml version="1.0" encoding="UTF-8"?>
<svg version="1.1" xmlns="http://www.w3.org/2000/svg" width="214" height="193">
<path d="M0 0 C70.62 0 141.24 0 214 0 C214 63.69 214 127.38 214 193 C143.38 193 72.76 193 0 193 C0 129.31 0 65.62 0 0 Z " fill="#FDFEFE" transform="translate(0,0)"/>
<path d="M0 0 C6.7920311 3.7574938 9.64232533 9.2843387 13.23730469 15.96801758 C14.21573594 17.72505962 15.19419762 19.48208561 16.17453003 21.23806763 C17.18463085 23.05287238 18.18635027 24.8721151 19.18701172 26.69213867 C22.26413947 32.27054752 25.47680914 37.77084973 28.67480469 43.28051758 C29.91110337 45.42208594 31.146777 47.56401526 32.38183594 49.70629883 C34.67729926 53.6851419 36.97303883 57.66382531 39.26913452 61.64230347 C40.30153946 63.43118676 41.33388425 65.22010475 42.36621094 67.0090332 C43.66166417 69.25389394 44.95723039 71.49868948 46.25292969 73.7434082 C47.398328 75.72834571 48.54148727 77.71457776 49.68188477 79.70239258 C50.59520071 81.27959886 51.52166194 82.84939746 52.47045898 84.40551758 C55.4069598 89.26306331 56.0316459 92.73194829 55.17480469 98.28051758 C53.41100876 102.45792898 50.89060924 104.73968371 47.17480469 107.28051758 C44.29570007 107.76153564 44.29570007 107.76153564 41.09936523 107.73461914 C39.29806404 107.73416595 39.29806404 107.73416595 37.46037292 107.73370361 C36.17375259 107.71305847 34.88713226 107.69241333 33.56152344 107.67114258 C32.22346341 107.66367585 30.8853924 107.65798495 29.5473175 107.6539917 C26.03715461 107.63876889 22.52766095 107.59951766 19.01776123 107.55517578 C15.43152925 107.51414965 11.84518841 107.49596513 8.25878906 107.47583008 C1.23052054 107.43301891 -5.79730519 107.36480925 -12.82519531 107.28051758 C-11.87574931 109.02382383 -10.92597896 110.76695343 -9.97607422 112.51000977 C-9.18277206 113.9660965 -9.18277206 113.9660965 -8.3734436 115.45159912 C-6.34358688 119.16049981 -4.27864417 122.84869389 -2.20019531 126.53051758 C-1.83152344 127.18536133 -1.46285156 127.84020508 -1.08300781 128.51489258 C-0.71691406 129.16458008 -0.35082031 129.81426758 0.02636719 130.48364258 C0.38061768 131.11471924 0.73486816 131.7457959 1.09985352 132.39599609 C1.82409502 133.66568043 2.56393632 134.92657746 3.31811523 136.17871094 C6.30454219 141.17606529 6.98931974 143.57891223 6.17480469 149.28051758 C4.05465479 153.0766753 1.22968577 155.69963585 -2.82519531 157.28051758 C-5.48147202 157.53778648 -5.48147202 157.53778648 -8.56732178 157.54794312 C-9.73924072 157.55647308 -10.91115967 157.56500305 -12.11859131 157.5737915 C-13.40074524 157.57288513 -14.68289917 157.57197876 -16.00390625 157.57104492 C-17.37081265 157.57703081 -18.73771567 157.5838365 -20.10461426 157.59140015 C-23.81555809 157.60906462 -27.52640967 157.6137558 -31.23739147 157.61503172 C-33.55782974 157.61645401 -35.87824461 157.62072516 -38.19867706 157.62602615 C-46.29978421 157.64453028 -54.40082555 157.65269658 -62.50195312 157.65112305 C-70.04325942 157.64992262 -77.58427905 157.67100434 -85.12551284 157.70261037 C-91.60720719 157.72880377 -98.08880813 157.73948901 -104.57055497 157.73821223 C-108.43853471 157.73770335 -112.30625986 157.74334492 -116.17418671 157.76456833 C-119.81538557 157.78400178 -123.45608844 157.78404087 -127.0973053 157.76953506 C-129.06145645 157.76646292 -131.02560792 157.78308906 -132.98968506 157.80041504 C-140.97422461 157.74380397 -146.63019463 156.95114317 -152.82519531 151.53051758 C-154.63685812 147.45427626 -154.57713405 143.26784902 -153.015625 139.14086914 C-151.8248576 136.7982896 -150.53987412 134.54128287 -149.20019531 132.28051758 C-148.4630127 130.99008545 -148.4630127 130.99008545 -147.7109375 129.67358398 C-146.10001368 126.86527044 -144.46414462 124.07255411 -142.82519531 121.28051758 C-141.71759363 119.37214539 -140.61083063 117.4632862 -139.50488281 115.55395508 C-137.17899543 111.54800016 -134.84167404 107.54898216 -132.49707031 103.55395508 C-128.74070627 97.1480487 -125.02995759 90.7163669 -121.32519531 84.28051758 C-115.95384357 74.95475398 -110.5587744 65.64346017 -105.11230469 56.36132812 C-102.31757303 51.59042367 -99.54811109 46.80803743 -96.84204102 41.98635864 C-95.50106522 39.59767508 -94.15187664 37.21366798 -92.80273438 34.82958984 C-91.851088 33.13901526 -90.91217262 31.44129403 -89.97363281 29.7434082 C-86.84674768 24.22314734 -84.26544738 19.68806676 -78.82519531 16.28051758 C-76.26269531 15.61645508 -76.26269531 15.61645508 -73.82519531 15.65551758 C-72.61863281 15.63618164 -72.61863281 15.63618164 -71.38769531 15.61645508 C-66.9481936 16.7669357 -64.07606543 19.45700578 -61.54101562 23.15258789 C-60.27643173 25.31066113 -59.10258353 27.49807234 -57.95019531 29.71801758 C-57.08885363 31.31992301 -56.22686569 32.92148112 -55.36425781 34.52270508 C-54.72858887 35.71718262 -54.72858887 35.71718262 -54.08007812 36.93579102 C-52.20898689 40.43189223 -50.27783159 43.89196304 -48.32519531 47.34301758 C-47.69613281 48.46836914 -47.06707031 49.5937207 -46.41894531 50.75317383 C-45.07181671 53.37304714 -45.07181671 53.37304714 -42.82519531 54.28051758 C-42.55368652 53.39638184 -42.28217773 52.51224609 -42.00244141 51.60131836 C-40.90734185 48.51223829 -39.65003787 45.96208727 -37.98925781 43.14770508 C-37.42513184 42.18574219 -36.86100586 41.2237793 -36.27978516 40.23266602 C-35.67602051 39.21720703 -35.07225586 38.20174805 -34.45019531 37.15551758 C-33.82967285 36.10396484 -33.20915039 35.05241211 -32.56982422 33.96899414 C-31.28851499 31.80072512 -30.00448073 29.63406418 -28.71777344 27.46899414 C-26.92625424 24.45077423 -25.14768379 21.42530095 -23.37207031 18.39770508 C-22.31543387 16.60825552 -21.25817475 14.81917345 -20.20019531 13.03051758 C-19.71631348 12.20406738 -19.23243164 11.37761719 -18.73388672 10.52612305 C-14.41940212 3.28867779 -9.52067979 -3.75300205 0 0 Z " fill="#7783FC" transform="translate(156.8251953125,26.719482421875)"/>
<path d="M0 0 C6.7920311 3.7574938 9.64232533 9.2843387 13.23730469 15.96801758 C14.21573594 17.72505962 15.19419762 19.48208561 16.17453003 21.23806763 C17.18463085 23.05287238 18.18635027 24.8721151 19.18701172 26.69213867 C22.26413947 32.27054752 25.47680914 37.77084973 28.67480469 43.28051758 C29.91110337 45.42208594 31.146777 47.56401526 32.38183594 49.70629883 C34.67729926 53.6851419 36.97303883 57.66382531 39.26913452 61.64230347 C40.30153946 63.43118676 41.33388425 65.22010475 42.36621094 67.0090332 C43.66166417 69.25389394 44.95723039 71.49868948 46.25292969 73.7434082 C47.398328 75.72834571 48.54148727 77.71457776 49.68188477 79.70239258 C50.59520071 81.27959886 51.52166194 82.84939746 52.47045898 84.40551758 C55.41104636 89.26982328 56.02039163 92.72678604 55.17480469 98.28051758 C53.78758974 101.82562243 52.72530735 102.95491505 49.45016479 104.89204407 C45.9559029 106.37331328 43.66496992 106.64456425 39.89404297 106.62109375 C38.67323029 106.62086716 37.4524176 106.62064056 36.1946106 106.6204071 C34.89127777 106.60492325 33.58794495 106.58943939 32.24511719 106.57348633 C30.88606232 106.56788461 29.52700135 106.56361723 28.16793823 106.56062317 C24.60696414 106.54921952 21.04636253 106.51979186 17.48553467 106.48651123 C13.84555092 106.45571301 10.20550644 106.4420971 6.56542969 106.42700195 C-0.56493017 106.39491714 -7.6950383 106.34377583 -14.82519531 106.28051758 C-16.92912352 102.67176522 -19.02857832 99.06045896 -21.12402344 95.44677734 C-21.83668223 94.21918701 -22.55053377 92.99228827 -23.265625 91.76611328 C-24.29648262 89.99800582 -25.32294823 88.227411 -26.34863281 86.45629883 C-26.96657715 85.3932251 -27.58452148 84.33015137 -28.22119141 83.23486328 C-29.6411797 80.61944801 -30.74232667 78.04526983 -31.82519531 75.28051758 C-33.11847159 73.25438475 -34.45488981 71.25536963 -35.82519531 69.28051758 C-37.17797646 67.29362026 -38.51087837 65.2930654 -39.82519531 63.28051758 C-40.22480469 62.71204102 -40.62441406 62.14356445 -41.03613281 61.55786133 C-42.20019531 59.78051758 -42.20019531 59.78051758 -43.82519531 56.28051758 C-42.77774067 52.0306999 -40.96253011 48.47662245 -38.77050781 44.71020508 C-38.16118408 43.65784668 -37.55186035 42.60548828 -36.92407227 41.52124023 C-36.27269287 40.41055176 -35.62131348 39.29986328 -34.95019531 38.15551758 C-34.27570108 36.99860486 -33.6014687 35.84153944 -32.92749023 34.68432617 C-30.90166243 31.2115044 -28.86343209 27.74607003 -26.82519531 24.28051758 C-26.22626465 23.25635742 -25.62733398 22.23219727 -25.01025391 21.17700195 C-23.39368181 18.41526149 -21.76798276 15.65917901 -20.13769531 12.90551758 C-19.65768066 12.08680176 -19.17766602 11.26808594 -18.68310547 10.42456055 C-14.37753728 3.21791432 -9.46468511 -3.73092924 0 0 Z " fill="#04CED2" transform="translate(156.8251953125,26.719482421875)"/>
<path d="M0 0 C0.99 0 1.98 0 3 0 C3.39832031 0.75925781 3.79664062 1.51851563 4.20703125 2.30078125 C4.73683594 3.29464844 5.26664063 4.28851563 5.8125 5.3125 C6.33457031 6.29863281 6.85664062 7.28476563 7.39453125 8.30078125 C8.78642971 10.64093169 10.0218739 12.18256202 12 14 C13.92459818 16.80670568 15.11603519 19.33382995 16.23828125 22.5625 C18.12212703 27.66705801 20.87931634 32.17084418 23.6875 36.8125 C24.69739279 38.48207056 25.70158755 40.1551051 26.69921875 41.83203125 C27.14096436 42.56139893 27.58270996 43.2907666 28.0378418 44.04223633 C29 46 29 46 29 49 C19.41877917 49.71160261 9.85863767 50.12345309 0.25 50.1875 C-0.6898877 50.20039063 -1.62977539 50.21328125 -2.59814453 50.2265625 C-7.16599031 50.23317418 -10.86278057 50.19898428 -15 48 C-15 47.34 -15 46.68 -15 46 C-15.66 46 -16.32 46 -17 46 C-19.67916116 41.42309968 -20.79380141 38.29200938 -20 33 C-17.20711029 27.13589137 -13.32821464 22.05012416 -9.375 16.93359375 C-7.57879561 14.40768133 -6.26388817 11.76266187 -4.9453125 8.96484375 C-3.46095562 5.87958957 -1.7245615 2.95639115 0 0 Z " fill="#6D92FA" transform="translate(112,84)"/>
<path d="M0 0 C4.78192754 1.10185981 7.13970977 3.54878139 9.96875 7.53515625 C11.10330929 11.27920189 11.34030982 14.11008724 9.54296875 17.69140625 C7.75182933 20.60795185 6.01899568 23.17241057 3.59375 25.59765625 C-0.48429272 26.28750479 -4.33256214 26.3146678 -8.40625 25.59765625 C-11.74194557 23.20967232 -13.59549038 20.2191755 -15.40625 16.59765625 C-16.13343963 11.32553146 -15.81717555 8.42120078 -12.59375 4.09765625 C-8.72767637 0.11371452 -5.4282642 -0.41010238 0 0 Z " fill="#07B5D3" transform="translate(115.40625,13.40234375)"/>
<path d="M0 0 C4.10361264 3.30568796 6.0574272 5.32006082 6.75 10.6875 C6.49668938 15.29950032 4.98711054 18.11370198 2.25 21.8125 C-1.60599237 24.20946823 -5.28875488 24.27400812 -9.75 23.8125 C-13.78674983 22.35063175 -16.22028902 20.5408526 -18.75 17.0625 C-20.01075356 12.96505094 -19.99936733 9.90671049 -18.75 5.8125 C-14.32529357 -1.20599985 -7.72396863 -3.33535009 0 0 Z " fill="#7985FC" transform="translate(195.75,147.1875)"/>
<path d="M0 0 C10.7479691 -0.86060251 10.7479691 -0.86060251 14.5625 2.25 C17.52573524 5.59313719 18.74088032 7.37124774 19.4375 11.75 C18.82724244 16.2833419 16.61338769 19.32259018 14 23 C13.34 22.67 12.68 22.34 12 22 C11.67 15.73 11.34 9.46 11 3 C8.47524538 1.73762269 6.68799534 1.90143596 3.875 1.9375 C2.96492188 1.94652344 2.05484375 1.95554687 1.1171875 1.96484375 C0.06917969 1.98224609 0.06917969 1.98224609 -1 2 C-0.67 1.34 -0.34 0.68 0 0 Z " fill="#12DDD4" transform="translate(107,14)"/>
<path d="M0 0 C0.66 0 1.32 0 2 0 C1.67 0.99 1.34 1.98 1 3 C0.34 3 -0.32 3 -1 3 C-0.67 8.61 -0.34 14.22 0 20 C-3.76198603 16.23801397 -4.74240806 15.17780642 -5.1796875 10.1015625 C-4.84443433 6.18055805 -2.77954621 2.77954621 0 0 Z " fill="#90B7FE" transform="translate(181,148)"/>
<path d="M0 0 C5.61785892 3.28211829 5.61785892 3.28211829 6.59765625 6.1953125 C6.68660156 6.79859375 6.77554688 7.401875 6.8671875 8.0234375 C5.8771875 7.3634375 4.8871875 6.7034375 3.8671875 6.0234375 C3.8671875 5.3634375 3.8671875 4.7034375 3.8671875 4.0234375 C-1.08825088 2.04126215 -4.87079245 1.42933846 -10.1328125 2.0234375 C-12.53687634 4.40186327 -12.53687634 4.40186327 -14.1328125 7.0234375 C-14.7928125 7.0234375 -15.4528125 7.0234375 -16.1328125 7.0234375 C-14.84270258 4.14549999 -13.55919444 2.06159833 -11.1328125 0.0234375 C-7.06947612 -1.33100796 -4.01185861 -1.8369316 0 0 Z " fill="#44F9DD" transform="translate(157.1328125,26.9765625)"/>
<path d="M0 0 C0.66 0.33 1.32 0.66 2 1 C0.625 3 0.625 3 -1 5 C-1.66 5 -2.32 5 -3 5 C-2.67 5.66 -2.34 6.32 -2 7 C-1.86584528 9.6723621 -1.95681459 12.32250488 -2 15 C-2.99 15.495 -2.99 15.495 -4 16 C-5.6124054 12.77518921 -5.60679502 9.48584376 -5 6 C-3.56130936 3.60553585 -1.99797988 1.99797988 0 0 Z " fill="#22AAD7" transform="translate(105,16)"/>
<path d="M0 0 C0.66 0.66 1.32 1.32 2 2 C1.34 2 0.68 2 0 2 C-0.11859375 2.56847656 -0.2371875 3.13695313 -0.359375 3.72265625 C-2.17993279 10.19451718 -6.02297109 15.5917744 -11 20 C-9.4095488 15.6366679 -7.25824078 11.75213615 -4.9375 7.75 C-4.57333984 7.11320312 -4.20917969 6.47640625 -3.83398438 5.8203125 C-1.14074248 1.14074248 -1.14074248 1.14074248 0 0 Z " fill="#6468F6" transform="translate(112,82)"/>
<path d="M0 0 C3.90697674 3.90697674 3.90697674 3.90697674 4.25 7.9375 C4 11 4 11 1 14 C0.67 9.38 0.34 4.76 0 0 Z " fill="#29EBD8" transform="translate(122,18)"/>
</svg>
